<svg width="100" height="114" viewBox="0 0 100 114" fill="none" xmlns="http://www.w3.org/2000/svg">
<path d="M82.1429 90.8438C79.1741 90.8438 76.7857 93.2262 76.7857 96.1875C76.7857 99.1488 79.1741 101.531 82.1429 101.531C85.1116 101.531 87.5 99.1488 87.5 96.1875C87.5 93.2262 85.1116 90.8438 82.1429 90.8438ZM64.2857 96.1875C64.2857 88.8844 68.683 82.6055 75 79.8668V74.8125C75 68.9121 70.2009 64.125 64.2857 64.125H35.7143C29.7991 64.125 25 68.9121 25 74.8125V79.8668C31.317 82.6055 35.7143 88.8844 35.7143 96.1875C35.7143 106.029 27.7232 114 17.8571 114C7.99107 114 9.53674e-07 106.029 9.53674e-07 96.1875C9.53674e-07 88.8844 4.39732 82.6055 10.7143 79.8668V74.8125C10.7143 61.0301 21.8973 49.875 35.7143 49.875H42.8571V34.1332C36.5402 31.3945 32.1429 25.1156 32.1429 17.8125C32.1429 7.97109 40.1339 0 50 0C59.8661 0 67.8571 7.97109 67.8571 17.8125C67.8571 25.1156 63.4598 31.3945 57.1429 34.1332V49.875H64.2857C78.1027 49.875 89.2857 61.0301 89.2857 74.8125V79.8668C95.6027 82.6055 100 88.8844 100 96.1875C100 106.029 92.0089 114 82.1429 114C72.2768 114 64.2857 106.029 64.2857 96.1875ZM17.8571 90.8438C14.8884 90.8438 12.5 93.2262 12.5 96.1875C12.5 99.1488 14.8884 101.531 17.8571 101.531C20.8259 101.531 23.2143 99.1488 23.2143 96.1875C23.2143 93.2262 20.8259 90.8438 17.8571 90.8438ZM44.6429 17.8125C44.6429 20.7738 47.0313 23.1562 50 23.1562C52.9688 23.1562 55.3571 20.7738 55.3571 17.8125C55.3571 14.8512 52.9688 12.4688 50 12.4688C47.0313 12.4688 44.6429 14.8512 44.6429 17.8125Z" fill="black"/>
</svg>
